<svg xmlns="http://www.w3.org/2000/svg" xmlns:xlink="http://www.w3.org/1999/xlink">
    <symbol id="icon-settings" fill="currentColor" viewBox="0 0 32 32">
        <path d="M15.629 8.011a.766.766 0 001.142-.002l.755-.828a2.368 2.368 0 014.123 1.708l-.057 1.12a.766.766 0 00.801.804l1.122-.057a2.37 2.37 0 011.704 4.124l-.834.752a.77.77 0 000 1.14l.834.753a2.368 2.368 0 01-1.708 4.123l-1.121-.057a.767.767 0 00-.806.806l.057 1.126a2.369 2.369 0 01-4.116 1.701l-.753-.834a.768.768 0 00-1.141.002l-.757.834a2.369 2.369 0 01-4.117-1.707l.058-1.121a.767.767 0 00-.806-.806l-1.119.057a2.367 2.367 0 01-1.711-4.121l.833-.752a.77.77 0 00-.002-1.142l-.833-.756a2.368 2.368 0 011.706-4.119l1.122.057a.77.77 0 00.806-.812l-.054-1.122a2.367 2.367 0 014.119-1.703l.752.831zm-1.938.245a.768.768 0 00-1.334.552l.053 1.117a2.369 2.369 0 01-2.487 2.491l-1.118-.057a.768.768 0 00-.551 1.334l.832.755a2.37 2.37 0 010 3.516l-.832.752a.767.767 0 00.555 1.334l1.12-.057a2.37 2.37 0 012.486 2.486l-.057 1.116a.767.767 0 001.333.553l.755-.832a2.37 2.37 0 013.515 0l.75.83a.769.769 0 001.333-.547l-.057-1.12a2.37 2.37 0 012.485-2.486l1.121.057a.767.767 0 00.554-1.336l-.834-.753a2.37 2.37 0 010-3.517l.833-.752a.768.768 0 00-.551-1.336l-1.122.057a2.368 2.368 0 01-2.48-2.484l.057-1.121a.767.767 0 00-1.339-.551l-.754.827a2.368 2.368 0 01-3.516.001l-.751-.829zm2.508 12.349a4.402 4.402 0 110-8.804 4.402 4.402 0 010 8.804zm0-1.601a2.801 2.801 0 100-5.602 2.801 2.801 0 000 5.602z"/>
    </symbol>
</svg>